<svg xmlns="http://www.w3.org/2000/svg" width="119" height="26" viewBox="0 0 119 26" fill="none"><g clip-path="url(#clip0_21846_7)"><path d="M5.34735 25.7307H0L11.8661 -0.0119019H12.7223L24.4834 25.7307H19.1711L12.2592 9.61186L5.34735 25.7307ZM27.2427 7.398V25.7307H31.7611V7.58018C31.7611 5.47721 33.0454 4.57028 34.3647 4.57028C34.5712 4.55803 34.7781 4.58352 34.9757 4.64552L35.8592 0.871266C35.0954 0.677903 34.3112 0.580805 33.5241 0.582158C30.6208 0.582158 27.2427 2.06731 27.2427 7.398ZM37.0812 7.398V25.7307H41.6074V7.58018C41.6074 5.47721 42.8878 4.57028 44.2071 4.57028C44.4354 4.558 44.664 4.58341 44.8843 4.64552L45.4175 0.871266C44.7456 0.675641 44.0498 0.578296 43.3509 0.582158C40.4749 0.582158 37.0734 2.06731 37.0734 7.398H37.0812ZM47.0092 25.7307H51.5315V10.6257H47.0092V25.7307ZM57.9063 10.6416H55.4117V25.7307H59.9339V16.9742C59.9246 16.576 59.9931 16.1798 60.1354 15.8087C60.2777 15.4376 60.491 15.0989 60.7628 14.8123C61.0347 14.5257 61.3598 14.2969 61.7192 14.1391C62.0786 13.9813 62.4653 13.8977 62.8567 13.893C64.6391 13.893 65.7794 15.2713 65.7794 17.0099V25.7307H70.3407V16.3564C70.3407 12.5505 67.811 10.1188 64.4251 10.1188C62.1795 10.1188 60.6461 11.0257 59.6849 12.1505L57.9063 10.6416ZM91.4187 14.2455V10.6257H87.9161V5.08117H87.5269L83.4016 5.5881V10.6257H81.4557L81.0315 13.794V14.2455H83.3666V19.9485C83.3666 24.7366 86.2543 26.0039 89.2821 26.0039C90.0989 26.0086 90.9131 25.9115 91.7067 25.7148C91.5277 24.4792 91.3175 23.2831 91.0996 22.0158C90.7412 22.1284 90.3693 22.1897 89.9943 22.198C88.889 22.198 87.8927 21.6515 87.8927 20.1663V14.2455H91.4187ZM74.0651 25.7307H78.5913V10.6257H74.0651V25.7307ZM95.0809 25.7307H99.6304V10.6257H95.0965L95.0809 25.7307ZM49.2353 3.55245C48.5963 3.57268 47.9894 3.84217 47.5403 4.30514C47.0911 4.76811 46.8341 5.38911 46.8224 6.03958C46.8224 6.69501 47.0783 7.32359 47.5337 7.78705C47.9891 8.2505 48.6068 8.51087 49.2509 8.51087C49.895 8.51087 50.5127 8.2505 50.9681 7.78705C51.4235 7.32359 51.6794 6.69501 51.6794 6.03958C51.6713 5.38251 51.4112 4.75466 50.9546 4.29C50.498 3.82534 49.881 3.56067 49.2353 3.55245ZM76.3418 3.55245C75.7028 3.57268 75.0959 3.84217 74.6468 4.30514C74.1976 4.76811 73.9406 5.38911 73.9289 6.03958C73.9289 6.69501 74.1848 7.32359 74.6402 7.78705C75.0956 8.2505 75.7133 8.51087 76.3574 8.51087C77.0015 8.51087 77.6192 8.2505 78.0746 7.78705C78.53 7.32359 78.7859 6.69501 78.7859 6.03958C78.7778 5.38251 78.5177 4.75466 78.0611 4.29C77.6045 3.82534 76.9875 3.56067 76.3418 3.55245ZM97.3576 3.55245C96.7186 3.57268 96.1117 3.84217 95.6626 4.30514C95.2134 4.76811 94.9564 5.38911 94.9447 6.03958C94.9447 6.69501 95.2006 7.32359 95.656 7.78705C96.1114 8.2505 96.7291 8.51087 97.3732 8.51087C98.0173 8.51087 98.635 8.2505 99.0904 7.78705C99.5458 7.32359 99.8017 6.69501 99.8017 6.03958C99.7936 5.38047 99.5319 4.75087 99.0727 4.28588C98.6136 3.8209 97.9937 3.55758 97.346 3.55245H97.3576ZM114.369 10.6416L110.415 17.8812L106.566 10.6257H101.646L109.878 25.9683H110.699L119 10.6257L114.369 10.6416Z" fill="#030A1C"></path><path d="M5.34735 25.7307H0L11.8661 -0.0119019H12.7223L24.4834 25.7307H19.1711L12.2592 9.61186L5.34735 25.7307ZM27.2427 7.398V25.7307H31.7611V7.58018C31.7611 5.47721 33.0454 4.57028 34.3647 4.57028C34.5712 4.55803 34.7781 4.58352 34.9757 4.64552L35.8592 0.871266C35.0954 0.677903 34.3112 0.580805 33.5241 0.582158C30.6208 0.582158 27.2427 2.06731 27.2427 7.398ZM37.0812 7.398V25.7307H41.6074V7.58018C41.6074 5.47721 42.8878 4.57028 44.2071 4.57028C44.4354 4.558 44.664 4.58341 44.8843 4.64552L45.4175 0.871266C44.7456 0.675641 44.0498 0.578296 43.3509 0.582158C40.4749 0.582158 37.0734 2.06731 37.0734 7.398H37.0812ZM47.0092 25.7307H51.5315V10.6257H47.0092V25.7307ZM57.9063 10.6416H55.4117V25.7307H59.9339V16.9742C59.9246 16.576 59.9931 16.1798 60.1354 15.8087C60.2777 15.4376 60.491 15.0989 60.7628 14.8123C61.0347 14.5257 61.3598 14.2969 61.7192 14.1391C62.0786 13.9813 62.4653 13.8977 62.8567 13.893C64.6391 13.893 65.7794 15.2713 65.7794 17.0099V25.7307H70.3407V16.3564C70.3407 12.5505 67.811 10.1188 64.4251 10.1188C62.1795 10.1188 60.6461 11.0257 59.6849 12.1505L57.9063 10.6416ZM91.4187 14.2455V10.6257H87.9161V5.08117H87.5269L83.4016 5.5881V10.6257H81.4557L81.0315 13.794V14.2455H83.3666V19.9485C83.3666 24.7366 86.2543 26.0039 89.2821 26.0039C90.0989 26.0086 90.9131 25.9115 91.7067 25.7148C91.5277 24.4792 91.3175 23.2831 91.0996 22.0158C90.7412 22.1284 90.3693 22.1897 89.9943 22.198C88.889 22.198 87.8927 21.6515 87.8927 20.1663V14.2455H91.4187ZM74.0651 25.7307H78.5913V10.6257H74.0651V25.7307ZM95.0809 25.7307H99.6304V10.6257H95.0965L95.0809 25.7307ZM49.2353 3.55245C48.5963 3.57268 47.9894 3.84217 47.5403 4.30514C47.0911 4.76811 46.8341 5.38911 46.8224 6.03958C46.8224 6.69501 47.0783 7.32359 47.5337 7.78705C47.9891 8.2505 48.6068 8.51087 49.2509 8.51087C49.895 8.51087 50.5127 8.2505 50.9681 7.78705C51.4235 7.32359 51.6794 6.69501 51.6794 6.03958C51.6713 5.38251 51.4112 4.75466 50.9546 4.29C50.498 3.82534 49.881 3.56067 49.2353 3.55245ZM76.3418 3.55245C75.7028 3.57268 75.0959 3.84217 74.6468 4.30514C74.1976 4.76811 73.9406 5.38911 73.9289 6.03958C73.9289 6.69501 74.1848 7.32359 74.6402 7.78705C75.0956 8.2505 75.7133 8.51087 76.3574 8.51087C77.0015 8.51087 77.6192 8.2505 78.0746 7.78705C78.53 7.32359 78.7859 6.69501 78.7859 6.03958C78.7778 5.38251 78.5177 4.75466 78.0611 4.29C77.6045 3.82534 76.9875 3.56067 76.3418 3.55245ZM97.3576 3.55245C96.7186 3.57268 96.1117 3.84217 95.6626 4.30514C95.2134 4.76811 94.9564 5.38911 94.9447 6.03958C94.9447 6.69501 95.2006 7.32359 95.656 7.78705C96.1114 8.2505 96.7291 8.51087 97.3732 8.51087C98.0173 8.51087 98.635 8.2505 99.0904 7.78705C99.5458 7.32359 99.8017 6.69501 99.8017 6.03958C99.7936 5.38047 99.5319 4.75087 99.0727 4.28588C98.6136 3.8209 97.9937 3.55758 97.346 3.55245H97.3576ZM114.369 10.6416L110.415 17.8812L106.566 10.6257H101.646L109.878 25.9683H110.699L119 10.6257L114.369 10.6416Z" fill="black" fill-opacity="0.2"></path><path d="M44.8765 7.31488L8.10271 19.2951L5.3512 25.7109L44.8765 8.9228V7.31488Z" fill="#F0B323"></path></g><defs><clipPath id="clip0_21846_7"><rect width="119" height="26" fill="white"></rect></clipPath></defs></svg>